:version 1.10
:name ASF
:units
  mass 1
  length 1
  angle deg
:documentation
  ASF file generated by Kaydara
:root
  axis xyz
  order  tx ty tz rx ry rz
  position 0 0 0
  orientation 0 0 0
:bonedata
  begin
    id 1
    name RightUpLegDummy
    direction -1 2.30186e-007 8.31532e-007
    length 4.04083
    axis 0 0 0 xyz
  end
  begin
    id 2
    name RightUpLeg
    direction -0.000919234 -0.999985 0.00544864
    length 17.4221
    axis -3.80308 -0.00076134 -0.0523649 xyz
    dof rx ry rz
  end
  begin
    id 3
    name RightLeg
    direction -0.000919271 -0.999984 -0.00555045
    length 17.1239
    axis 4.00314 0.0181274 -0.183583 xyz
    dof rx ry rz
  end
  begin
    id 4
    name RightFoot
    direction -2.57843e-005 -4.04509e-007 1
    length 6.72091
    axis 8.18909e-005 -0.122003 -0.403008 xyz
    dof rx ry rz
  end
  begin
    id 5
    name RightToes
    direction 0.00116825 -0.014069 0.9999
    length 3.85082
    axis 0.000514414 0.540638 -0.356797 xyz
    dof rx ry rz
  end
  begin
    id 6
    name SpineDummy
    direction 0.0168869 0.966876 -0.254689
    length 6.99894
    axis 0 0 0 xyz
  end
  begin
    id 7
    name Spine
    direction -0.0132008 0.999903 0.00446247
    length 11.1999
    axis -0.00148109 0.00725429 0.756411 xyz
    dof rx ry rz
  end
  begin
    id 8
    name Spine1
    direction 0 0 0
    length 0
    axis -0.000934958 0.0245693 1.46543 xyz
    dof rx ry rz
  end
  begin
    id 9
    name HEadDummy
    direction -0.0255732 0.999672 0.00128215
    length 3.43865
    axis -0.000934958 0.0245693 1.46543 xyz
  end
  begin
    id 10
    name HEad
    direction -0.0472656 0.980052 0.19304
    length 5.12695
    axis -0.000934954 0.0245693 1.46543 xyz
    dof rx ry rz
  end
  begin
    id 11
    name LeftShoulder1Dummy
    direction 0.953098 0.301717 -0.023914
    length 3.68488
    axis -0.000934958 0.0245693 1.46543 xyz
  end
  begin
    id 12
    name LeftShoulder1
    direction 0.962466 0.271167 0.0112566
    length 3.13809
    axis -0.000934958 0.0245693 1.46543 xyz
    dof rx ry rz
  end
  begin
    id 13
    name LeftArm
    direction 0.999943 0.00455037 -0.00961766
    length 11.3419
    axis -23.1648 0.685459 1.22814 xyz
    dof rx ry rz
  end
  begin
    id 14
    name LeftForeArm
    direction 0.999332 0.0131969 0.0340885
    length 8.70632
    axis -9.90633 0.618216 0.0826942 xyz
    dof rx ry rz
  end
  begin
    id 15
    name LeftHand
    direction 0.994373 -0.0366703 0.0993905
    length 5.32135
    axis 0.00675269 0.680415 0.445699 xyz
    dof rx ry rz
  end
  begin
    id 16
    name RightShoulderDummy
    direction -0.967298 0.252589 -0.0230903
    length 3.68488
    axis -0.000934958 0.0245693 1.46543 xyz
  end
  begin
    id 17
    name RightShoulder
    direction -0.975062 0.221602 0.0120823
    length 3.13809
    axis 0.216257 0.0246515 1.45863 xyz
    dof rx ry rz
  end
  begin
    id 18
    name RightArm
    direction -0.99886 -0.00851186 -0.0469687
    length 10.3947
    axis -23.196 0.23503 -0.532632 xyz
    dof rx ry rz
  end
  begin
    id 19
    name RightForeArm
    direction -0.99909 0.00114866 0.0426317
    length 8.68355
    axis -9.91764 -0.134943 0.610517 xyz
    dof rx ry rz
  end
  begin
    id 20
    name RightHand
    direction -0.992888 -0.0489538 0.10852
    length 5.28593
    axis -0.00275396 -0.197403 0.246414 xyz
    dof rx ry rz
  end
  begin
    id 21
    name LeftUpLegDummy
    direction 1 -2.30186e-007 -8.31532e-007
    length 4.04083
    axis 0 0 0 xyz
  end
  begin
    id 22
    name LeftUpLeg
    direction -0.000920097 -1 2.79241e-006
    length 17.4221
    axis -3.48782 0.00143434 -0.0532288 xyz
    dof rx ry rz
  end
  begin
    id 23
    name LeftLeg
    direction -0.000920097 -1 2.7912e-006
    length 17.1239
    axis 3.68162 -0.00806512 -0.0529896 xyz
    dof rx ry rz
  end
  begin
    id 24
    name LeftFoot
    direction -2.57845e-005 -3.987e-007 1
    length 6.72091
    axis 3.02372e-005 -0.00147829 -0.214229 xyz
    dof rx ry rz
  end
  begin
    id 25
    name LeftToes
    direction 0.00813577 -0.00488255 0.999955
    length 3.85048
    axis 3.89895e-005 -0.0014783 -0.214229 xyz
    dof rx ry rz
  end
:hierarchy
  begin
    root RightUpLegDummy SpineDummy LeftUpLegDummy
    RightUpLegDummy RightUpLeg
    RightUpLeg RightLeg
    RightLeg RightFoot
    RightFoot RightToes
    SpineDummy Spine
    Spine Spine1
    Spine1 HEadDummy LeftShoulder1Dummy RightShoulderDummy
    HEadDummy HEad
    LeftShoulder1Dummy LeftShoulder1
    LeftShoulder1 LeftArm
    LeftArm LeftForeArm
    LeftForeArm LeftHand
    RightShoulderDummy RightShoulder
    RightShoulder RightArm
    RightArm RightForeArm
    RightForeArm RightHand
    LeftUpLegDummy LeftUpLeg
    LeftUpLeg LeftLeg
    LeftLeg LeftFoot
    LeftFoot LeftToes
  end

:SAMPLES-PER-SECOND 30
:FULLY-SPECIFIED
:DEGREES
67
root  -43.9315 34.6211 2.21759 -176.667 79.123 172.604
RightUpLeg  -14.0343 -15.7772 -6.78929
RightLeg  13.9298 -3.53365 -0.63765
RightFoot  4.50389 0.0260008 -0.114569
RightToes  -31.0931 -0.15152 -0.259491
Spine  -1.10595 -0.218554 -0.646327
Spine1  -2.27407 -0.380095 -0.688645
HEad  -73.5292 -1.78334 9.24116
LeftShoulder1  -1.94126e-019 -3.10601e-018 -2.51263e-017
LeftArm  -7.19032 19.5971 -80.9716
LeftForeArm  33.1993 -20.7292 -3.31853
LeftHand  -0.422175 -1.11696 7.67615
RightShoulder  -4.96962e-017 0 -2.36833e-017
RightArm  -33.5323 -22.8712 76.915
RightForeArm  54.1772 14.703 1.19715
RightHand  -0.334579 -1.318 -9.43439
LeftUpLeg  -16.3886 6.71794 -3.49337
LeftLeg  17.1255 18.3358 4.2981
LeftFoot  0.544256 -0.00072447 0.314149
LeftToes  -14.3423 1.49739e-006 1.00523e-007
68
root  -44.0488 34.6523 1.94751 -178.559 80.3612 170.282
RightUpLeg  -14.6084 -15.9005 -7.32606
RightLeg  13.2957 -2.2864 -0.386476
RightFoot  5.32564 0.0274775 -0.0493382
RightToes  -31.7331 -0.155361 -0.263172
Spine  -1.13528 -0.279415 -0.851616
Spine1  -2.339 -0.48666 -1.07833
HEad  -73.8794 -1.47243 7.60603
LeftShoulder1  -1.94126e-019 -3.10601e-018 -2.51263e-017
LeftArm  -6.17627 19.0897 -80.4038
LeftForeArm  33.7184 -20.0088 -3.20847
LeftHand  -0.4087 -1.22624 7.32119
RightShoulder  -4.96962e-017 0 -2.36833e-017
RightArm  -31.1745 -22.3484 77.868
RightForeArm  53.8847 16.0487 1.08975
RightHand  -0.351921 -1.0935 -9.43626
LeftUpLeg  -15.9877 7.36223 -4.36372
LeftLeg  15.4161 19.0648 3.87933
LeftFoot  0.869839 -0.002147 0.44444
LeftToes  -13.7237 1.49739e-006 1.00523e-007
69
root  -44.146 34.6842 1.72403 -179.238 81.3981 169.303
RightUpLeg  -14.7535 -16.0435 -7.53221
RightLeg  12.1479 -1.22171 -0.181032
RightFoot  6.2642 0.0278999 0.0272599
RightToes  -32.1805 -0.159221 -0.266832
Spine  -1.10194 -0.277294 -0.975159
Spine1  -2.27395 -0.476598 -1.30572
HEad  -74.3887 -1.17408 6.41688
LeftShoulder1  -1.94126e-019 -3.10601e-018 -2.51263e-017
LeftArm  -5.73522 18.2091 -79.9886
LeftForeArm  34.677 -19.044 -3.08943
LeftHand  -0.419044 -1.20124 7.52952
RightShoulder  -4.96962e-017 0 -2.36833e-017
RightArm  -29.4895 -21.8876 78.6098
RightForeArm  54.0283 17.2166 1.13349
RightHand  -0.381197 -0.782135 -9.57078
LeftUpLeg  -15.5713 7.91994 -4.87176
LeftLeg  13.8674 19.5019 3.43062
LeftFoot  1.14489 -0.0039349 0.555426
LeftToes  -13.1392 1.49739e-006 1.00523e-007
70
root  -44.2215 34.7159 1.54753 -179.172 82.2726 169.137
RightUpLeg  -14.589 -16.086 -7.5725
RightLeg  10.6656 -0.399666 -0.048002
RightFoot  7.21991 0.026929 0.106949
RightToes  -32.6248 -0.162407 -0.269788
Spine  -1.12455 -0.223675 -1.07677
Spine1  -2.31785 -0.370152 -1.49116
HEad  -74.4908 -1.07489 5.49593
LeftShoulder1  -1.94126e-019 -3.10601e-018 -2.51263e-017
LeftArm  -5.93276 17.4693 -79.6102
LeftForeArm  35.4519 -18.1925 -3.00016
LeftHand  -0.397287 -1.53128 6.83049
RightShoulder  -4.96962e-017 0 -2.36833e-017
RightArm  -28.0782 -21.6959 79.1411
RightForeArm  54.1477 18.1182 1.28591
RightHand  -0.403503 -0.108745 -8.90443
LeftUpLeg  -15.3573 9.16372 -5.23595
LeftLeg  12.7608 19.2175 3.00917
LeftFoot  1.26626 -0.0042025 0.59461
LeftToes  -12.6329 1.49739e-006 1.00523e-007
71
root  -44.2892 34.7397 1.41197 -178.352 82.8249 169.789
RightUpLeg  -14.263 -16.317 -7.51911
RightLeg  9.18438 0.361626 0.0358901
RightFoot  8.00847 0.022124 0.203264
RightToes  -33.0062 -0.164871 -0.272035
Spine  -1.07029 -0.193428 -1.17905
Spine1  -2.20728 -0.310633 -1.68509
HEad  -74.6418 -0.950287 5.16827
LeftShoulder1  -1.94126e-019 -3.10601e-018 -2.51263e-017
LeftArm  -6.63031 16.6681 -79.1472
LeftForeArm  35.5575 -17.8645 -2.97959
LeftHand  -0.408173 -1.24546 7.2923
RightShoulder  -4.96962e-017 0 -2.36833e-017
RightArm  -27.0568 -21.2399 79.5849
RightForeArm  54.441 18.5692 1.35548
RightHand  -0.408351 -0.0145932 -8.86222
LeftUpLeg  -15.4813 9.78803 -5.41897
LeftLeg  12.4728 19.1608 2.90405
LeftFoot  1.25474 -0.00287512 0.591419
LeftToes  -12.0535 1.49739e-006 1.00523e-007
72
root  -44.3582 34.7543 1.32788 -176.691 83.1081 171.333
RightUpLeg  -14.0613 -16.8669 -7.27548
RightLeg  8.20987 0.948009 0.0761542
RightFoot  8.10335 0.0170173 0.283568
RightToes  -32.9536 -0.167592 -0.27449
Spine  -1.11717 -0.143678 -1.25779
Spine1  -2.30108 -0.211301 -1.83841
HEad  -74.3314 -0.967138 5.19264
LeftShoulder1  -1.94126e-019 -3.10601e-018 -2.51263e-017
LeftArm  -7.13311 16.1884 -78.5964
LeftForeArm  34.8525 -17.9489 -3.00769
LeftHand  -0.412744 -1.35688 7.25955
RightShoulder  -4.96962e-017 0 -2.36833e-017
RightArm  -26.4288 -20.9599 79.8533
RightForeArm  54.8553 18.5349 1.33341
RightHand  -0.417258 0.0654448 -8.92947
LeftUpLeg  -15.7972 9.79326 -5.39091
LeftLeg  12.6757 19.4098 3.00918
LeftFoot  1.17162 -0.00115822 0.569477
LeftToes  -11.7364 1.49739e-006 1.00523e-007
73
root  -44.4191 34.7622 1.27041 -175.517 83.2548 172.392
RightUpLeg  -14.2601 -18.2302 -7.0482
RightLeg  8.29427 0.774387 0.0635554
RightFoot  7.38964 0.0178082 0.251855
RightToes  -33.2366 -0.170274 -0.276893
Spine  -1.10593 -0.0546264 -1.37042
Spine1  -2.28248 -0.0309699 -2.06801
HEad  -74.1591 -1.10286 5.53759
LeftShoulder1  -1.94126e-019 -3.10601e-018 -2.51263e-017
LeftArm  -7.65777 15.6929 -77.9954
LeftForeArm  34.1312 -18.4162 -3.07437
LeftHand  -0.414858 -1.33888 7.31408
RightShoulder  -4.96962e-017 0 -2.36833e-017
RightArm  -26.3167 -20.5705 80.0482
RightForeArm  55.1388 18.2425 1.27017
RightHand  -0.424683 0.108974 -9.01975
LeftUpLeg  -15.9942 9.83535 -5.39785
LeftLeg  12.657 19.4415 3.00755
LeftFoot  1.14413 -0.000777541 0.560494
LeftToes  -11.4862 1.49739e-006 1.00523e-007
74
root  -44.4747 34.7664 1.2439 -174.372 83.2717 173.491
RightUpLeg  -14.6789 -20.2185 -6.78542
RightLeg  9.19568 -0.0790917 -0.00655876
RightFoot  5.84727 0.0193358 0.151618
RightToes  -32.9784 -0.17262 -0.278985
Spine  -1.10076 0.0740198 -1.45716
Spine1  -2.27934 0.230724 -2.25134
HEad  -73.8591 -1.39515 5.59303
LeftShoulder1  -1.94126e-019 -3.10601e-018 -2.51263e-017
LeftArm  -7.82108 15.2446 -77.4594
LeftForeArm  33.7285 -18.8781 -3.12883
LeftHand  -0.415826 -1.32787 7.34193
RightShoulder  -4.96962e-017 0 -2.36833e-017
RightArm  -26.3441 -20.3325 80.0442
RightForeArm  55.2577 17.8585 1.19705
RightHand  -0.427072 0.00127233 -9.05544
LeftUpLeg  -16.0512 10.3265 -5.40566
LeftLeg  12.415 18.9973 2.86103
LeftFoot  1.19649 -0.00162662 0.567705
LeftToes  -11.3678 1.49739e-006 1.00523e-007
75
root  -44.511 34.7735 1.25346 -173.471 83.3175 174.391
RightUpLeg  -15.2061 -22.1654 -6.48045
RightLeg  10.5477 -1.23358 -0.147475
RightFoot  4.7378 0.0193713 0.0657993
RightToes  -32.8175 -0.174332 -0.280505
Spine  -1.0981 0.236693 -1.52519
Spine1  -2.28062 0.559547 -2.3979
HEad  -73.5611 -1.65177 5.44254
LeftShoulder1  -1.94126e-019 -3.10601e-018 -2.51263e-017
LeftArm  -7.78116 14.934 -76.9336
LeftForeArm  33.5215 -19.4035 -3.1924
LeftHand  -0.425371 -1.23234 7.60778
RightShoulder  -4.96962e-017 0 -2.36833e-017
RightArm  -26.2515 -20.0808 79.867
RightForeArm  55.4534 17.2939 1.0921
RightHand  -0.426939 0.00387266 -9.13773
LeftUpLeg  -16.0178 11.3538 -5.41787
LeftLeg  12.0812 18.0585 2.61905
LeftFoot  1.30361 -0.00266199 0.579779
LeftToes  -11.5025 1.49739e-006 1.00523e-007
76
root  -44.542 34.779 1.29711 -172.999 83.303 174.891
RightUpLeg  -15.7145 -23.5169 -6.19197
RightLeg  12.3577 -1.91214 -0.290872
RightFoot  4.43142 0.0195987 0.0232708
RightToes  -33.19 -0.175114 -0.281193
Spine  -1.10113 0.371992 -1.57657
Spine1  -2.2885 0.829538 -2.50436
HEad  -73.2775 -1.81169 5.20481
LeftShoulder1  -1.94126e-019 -3.10601e-018 -2.51263e-017
LeftArm  -7.75605 14.7997 -76.4869
LeftForeArm  33.3835 -19.8968 -3.25686
LeftHand  -0.433879 -1.16605 7.83027
RightShoulder  -4.96962e-017 0 -2.36833e-017
RightArm  -26.3673 -19.7961 79.5877
RightForeArm  55.9237 16.6947 1.02659
RightHand  -0.425411 -0.0723937 -9.20488
LeftUpLeg  -16.0021 11.7955 -5.34963
LeftLeg  11.9157 17.624 2.50705
LeftFoot  1.43646 -0.00449137 0.611052
LeftToes  -11.7946 1.49739e-006 1.00523e-007
77
root  -44.5725 34.7818 1.38765 -172.975 83.1821 174.929
RightUpLeg  -16.0079 -23.342 -6.05607
RightLeg  14.437 -1.5652 -0.296964
RightFoot  4.58962 0.0168035 0.0430539
RightToes  -33.3192 -0.17467 -0.28079
Spine  -1.12899 0.4527 -1.62675
Spine1  -2.34629 0.990127 -2.60631
HEad  -72.903 -1.73043 4.71413
LeftShoulder1  -1.94126e-019 -3.10601e-018 -2.51263e-017
LeftArm  -7.60909 14.8874 -76.0139
LeftForeArm  32.883 -20.2608 -3.29745
LeftHand  -0.432913 -1.01633 7.98343
RightShoulder  -4.96962e-017 0 -2.36833e-017
RightArm  -26.6032 -19.5791 79.29
RightForeArm  56.2949 16.2187 1.01772
RightHand  -0.425147 -0.0826241 -9.19736
LeftUpLeg  -16.0933 11.5591 -5.19126
LeftLeg  11.9937 17.7469 2.54818
LeftFoot  1.58966 -0.00697311 0.664211
LeftToes  -12.1377 1.49739e-006 1.00523e-007
